# xmcd CD database file
#
# Track frame offsets:
#	150
#	14984
#	36349
#	52196
#	71641
#	86678
#
# Disc length: 1341 seconds
#
# Revision: 0
# Processed by: cddbd v1.5.1PL2 Copyright (c) Steve Scherf et al.
# Submitted via: CDex 1.51
#
DISCID=58053b06
DTITLE=Katey Brooks - Give Me The Words
DYEAR=2006
DGENRE=Jazz
TTITLE0=Give Me The Words
TTITLE1=Willing
TTITLE2=Found
TTITLE3=Hunger
TTITLE4=Sacred
TTITLE5=Familiar Strangers
EXTD=YEAR: 2006
EXTT0=
EXTT1=
EXTT2=
EXTT3=
EXTT4=
EXTT5=
PLAYORDER=
